<?xml version="1.0" standalone="no"?>
<!DOCTYPE svg PUBLIC "-//W3C//DTD SVG 20010904//EN"
 "http://www.w3.org/TR/2001/REC-SVG-20010904/DTD/svg10.dtd">
<svg version="1.0" xmlns="http://www.w3.org/2000/svg"
 width="512.000000pt" height="512.000000pt" viewBox="0 0 512.000000 512.000000"
 preserveAspectRatio="xMidYMid meet">

<g transform="translate(0.000000,512.000000) scale(0.100000,-0.100000)"
fill="#000000" stroke="none">
<path d="M415 5110 c-183 -38 -330 -170 -391 -350 -18 -53 -19 -134 -19 -2205
l0 -2150 27 -68 c61 -153 175 -262 328 -313 53 -18 134 -19 2200 -19 2066 0
2147 1 2200 19 154 52 274 168 332 322 l23 59 0 2155 0 2155 -27 68 c-60 148
-166 253 -314 310 l-59 22 -2130 1 c-1172 1 -2148 -2 -2170 -6z m1625 -1180
l0 -170 -369 0 c-346 0 -373 -1 -437 -21 -57 -18 -77 -31 -129 -82 -102 -103
-95 -18 -95 -1098 0 -929 0 -939 21 -994 28 -76 107 -155 186 -186 57 -23 67
-24 441 -27 l382 -3 0 -165 0 -165 -412 4 c-470 4 -486 6 -648 84 -171 82
-280 218 -332 416 -21 81 -22 97 -25 956 -4 884 0 1011 32 1136 70 266 289
437 606 474 41 5 233 9 427 10 l352 1 0 -170z m1855 160 c324 -37 511 -178
582 -440 16 -57 18 -115 18 -495 0 -423 0 -431 -23 -505 -54 -172 -140 -277
-286 -349 -139 -69 -219 -82 -578 -88 l-308 -6 0 -593 0 -594 -190 0 -190 0 0
1540 0 1540 443 0 c243 0 483 -5 532 -10z"/>
<path d="M3300 3155 l0 -617 298 4 c321 5 360 11 427 62 18 14 46 52 62 83
l28 58 3 385 c3 334 1 393 -13 447 -22 82 -68 135 -143 164 -54 22 -74 23
-359 27 l-303 4 0 -617z"/>
</g>
</svg>
